<?xml version="1.0" encoding="UTF-8" standalone="no"?>
<svg
   xmlns:ooo="http://xml.openoffice.org/svg/export"
   xmlns:dc="http://purl.org/dc/elements/1.1/"
   xmlns:cc="http://creativecommons.org/ns#"
   xmlns:rdf="http://www.w3.org/1999/02/22-rdf-syntax-ns#"
   xmlns:svg="http://www.w3.org/2000/svg"
   xmlns="http://www.w3.org/2000/svg"
   xmlns:sodipodi="http://sodipodi.sourceforge.net/DTD/sodipodi-0.dtd"
   xmlns:inkscape="http://www.inkscape.org/namespaces/inkscape"
   version="1.2"
   width="63.5mm"
   height="60.96mm"
   viewBox="0 0 6350 6096"
   preserveAspectRatio="xMidYMid"
   fill-rule="evenodd"
   clip-path="url(#presentation_clip_path)"
   stroke-width="28.222"
   stroke-linejoin="round"
   xml:space="preserve"
   id="svg2"
   inkscape:version="0.48.4 r9939"
   sodipodi:docname="application-x-cbgraphfile.svg"><metadata
     id="metadata113"><rdf:RDF><cc:Work
         rdf:about=""><dc:format>image/svg+xml</dc:format><dc:type
           rdf:resource="http://purl.org/dc/dcmitype/StillImage" /></cc:Work></rdf:RDF></metadata><sodipodi:namedview
     pagecolor="#ffffff"
     bordercolor="#666666"
     borderopacity="1"
     objecttolerance="10"
     gridtolerance="10"
     guidetolerance="10"
     inkscape:pageopacity="0"
     inkscape:pageshadow="2"
     inkscape:window-width="640"
     inkscape:window-height="480"
     id="namedview111"
     showgrid="false"
     inkscape:zoom="1.0925926"
     inkscape:cx="112.5"
     inkscape:cy="108"
     inkscape:window-x="65"
     inkscape:window-y="24"
     inkscape:window-maximized="0"
     inkscape:current-layer="svg2" /><defs
     class="ClipPathGroup"
     id="defs4"><clipPath
       id="presentation_clip_path"
       clipPathUnits="userSpaceOnUse"><rect
         x="0"
         y="0"
         width="6350"
         height="6096"
         id="rect7" /></clipPath></defs><defs
     class="TextShapeIndex"
     id="defs9"><g
       ooo:slide="id1"
       ooo:id-list="id3 id4 id5 id6 id7 id8 id9 id10 id11"
       id="g11" /></defs><defs
     class="EmbeddedBulletChars"
     id="defs13"><g
       id="bullet-char-template(57356)"
       transform="scale(0.00048828125,-0.00048828125)"><path
         d="M 580,1141 L 1163,571 580,0 -4,571 580,1141 Z"
         id="path16" /></g><g
       id="bullet-char-template(57354)"
       transform="scale(0.00048828125,-0.00048828125)"><path
         d="M 8,1128 L 1137,1128 1137,0 8,0 8,1128 Z"
         id="path19" /></g><g
       id="bullet-char-template(10146)"
       transform="scale(0.00048828125,-0.00048828125)"><path
         d="M 174,0 L 602,739 174,1481 1456,739 174,0 Z M 1358,739 L 309,1346 659,739 1358,739 Z"
         id="path22" /></g><g
       id="bullet-char-template(10132)"
       transform="scale(0.00048828125,-0.00048828125)"><path
         d="M 2015,739 L 1276,0 717,0 1260,543 174,543 174,936 1260,936 717,1481 1274,1481 2015,739 Z"
         id="path25" /></g><g
       id="bullet-char-template(10007)"
       transform="scale(0.00048828125,-0.00048828125)"><path
         d="M 0,-2 C -7,14 -16,27 -25,37 L 356,567 C 262,823 215,952 215,954 215,979 228,992 255,992 264,992 276,990 289,987 310,991 331,999 354,1012 L 381,999 492,748 772,1049 836,1024 860,1049 C 881,1039 901,1025 922,1006 886,937 835,863 770,784 769,783 710,716 594,584 L 774,223 C 774,196 753,168 711,139 L 727,119 C 717,90 699,76 672,76 641,76 570,178 457,381 L 164,-76 C 142,-110 111,-127 72,-127 30,-127 9,-110 8,-76 1,-67 -2,-52 -2,-32 -2,-23 -1,-13 0,-2 Z"
         id="path28" /></g><g
       id="bullet-char-template(10004)"
       transform="scale(0.00048828125,-0.00048828125)"><path
         d="M 285,-33 C 182,-33 111,30 74,156 52,228 41,333 41,471 41,549 55,616 82,672 116,743 169,778 240,778 293,778 328,747 346,684 L 369,508 C 377,444 397,411 428,410 L 1163,1116 C 1174,1127 1196,1133 1229,1133 1271,1133 1292,1118 1292,1087 L 1292,965 C 1292,929 1282,901 1262,881 L 442,47 C 390,-6 338,-33 285,-33 Z"
         id="path31" /></g><g
       id="bullet-char-template(9679)"
       transform="scale(0.00048828125,-0.00048828125)"><path
         d="M 813,0 C 632,0 489,54 383,161 276,268 223,411 223,592 223,773 276,916 383,1023 489,1130 632,1184 813,1184 992,1184 1136,1130 1245,1023 1353,916 1407,772 1407,592 1407,412 1353,268 1245,161 1136,54 992,0 813,0 Z"
         id="path34" /></g><g
       id="bullet-char-template(8226)"
       transform="scale(0.00048828125,-0.00048828125)"><path
         d="M 346,457 C 273,457 209,483 155,535 101,586 74,649 74,723 74,796 101,859 155,911 209,963 273,989 346,989 419,989 480,963 531,910 582,859 608,796 608,723 608,648 583,586 532,535 482,483 420,457 346,457 Z"
         id="path37" /></g><g
       id="bullet-char-template(8211)"
       transform="scale(0.00048828125,-0.00048828125)"><path
         d="M -4,459 L 1135,459 1135,606 -4,606 -4,459 Z"
         id="path40" /></g></defs><defs
     class="TextEmbeddedBitmaps"
     id="defs42" /><g
     id="g44"><g
       id="id2"
       class="Master_Slide"><g
         id="bg-id2"
         class="Background" /><g
         id="bo-id2"
         class="BackgroundObjects" /></g></g><g
     class="SlideGroup"
     id="g49"
     transform="matrix(1.4798864,0,0,1.4153738,-1646.0003,-982.28588)"><g
       id="g51"><g
         id="id1"
         class="Slide"
         clip-path="url(#presentation_clip_path)"><g
           class="Page"
           id="g54"><g
             class="Group"
             id="g56"><g
               class="com.sun.star.drawing.PolyPolygonShape"
               id="g58"><g
                 id="id3"><path
                   d="m 3270,4611 -1843,0 0,-3521 3683,0 0,3521 -1840,0 z"
                   id="path61"
                   inkscape:connector-curvature="0"
                   style="fill:#ffffed;stroke:none" /><path
                   d="m 3270,4611 -1843,0 0,-3521 3683,0 0,3521 -1840,0 z"
                   id="path63"
                   inkscape:connector-curvature="0"
                   style="fill:none;stroke:#0000cc;stroke-width:305;stroke-linejoin:round" /></g></g><g
               class="com.sun.star.drawing.CustomShape"
               id="g65"><g
                 id="id4"><path
                   d="m 3850,2177 c 333,0 588,217 588,501 0,284 -255,501 -588,501 -333,0 -587,-217 -587,-501 0,-284 254,-501 587,-501 z m -587,0 0,0 z m 1176,1003 0,0 z"
                   id="path68"
                   inkscape:connector-curvature="0"
                   style="fill:#ff3300;stroke:none" /></g></g><g
               class="com.sun.star.drawing.CustomShape"
               id="g70"><g
                 id="id5"><path
                   d="m 3584,4772 -238,0 0,-375 475,0 0,375 -237,0 z"
                   id="path73"
                   inkscape:connector-curvature="0"
                   style="fill:#ffffff;stroke:none" /></g></g><g
               class="com.sun.star.drawing.LineShape"
               id="g75"><g
                 id="id6"><path
                   d="M 3866,4759 3837,3363"
                   id="path78"
                   inkscape:connector-curvature="0"
                   style="fill:none;stroke:#0000cc;stroke-width:305;stroke-linejoin:round" /></g></g><g
               class="com.sun.star.drawing.LineShape"
               id="g80"><g
                 id="id7"><path
                   d="m 2957,1813 -616,779"
                   id="path83"
                   inkscape:connector-curvature="0"
                   style="fill:none;stroke:#666666;stroke-width:76;stroke-linejoin:round" /></g></g><g
               class="com.sun.star.drawing.LineShape"
               id="g85"><g
                 id="id8"><path
                   d="m 2348,3117 522,651"
                   id="path88"
                   inkscape:connector-curvature="0"
                   style="fill:none;stroke:#666666;stroke-width:76;stroke-linejoin:round" /></g></g><g
               class="com.sun.star.drawing.PolyPolygonShape"
               id="g90"><g
                 id="id9"><path
                   d="m 2896,4200 -552,0 0,-500 1103,0 0,500 -551,0 z"
                   id="path93"
                   inkscape:connector-curvature="0"
                   style="fill:#00ccff;stroke:none" /><path
                   d="m 2896,4200 -552,0 0,-500 1103,0 0,500 -551,0 z"
                   id="path95"
                   inkscape:connector-curvature="0"
                   style="fill:none;stroke:#3465af;stroke-width:76;stroke-linejoin:round" /></g></g><g
               class="com.sun.star.drawing.PolyPolygonShape"
               id="g97"><g
                 id="id10"><path
                   d="m 2355,3108 -552,0 0,-500 1103,0 0,500 -551,0 z"
                   id="path100"
                   inkscape:connector-curvature="0"
                   style="fill:#ffff00;stroke:none" /><path
                   d="m 2355,3108 -552,0 0,-500 1103,0 0,500 -551,0 z"
                   id="path102"
                   inkscape:connector-curvature="0"
                   style="fill:none;stroke:#3465af;stroke-width:76;stroke-linejoin:round" /></g></g><g
               class="com.sun.star.drawing.PolyPolygonShape"
               id="g104"><g
                 id="id11"><path
                   d="m 2928,1976 -552,0 0,-500 1103,0 0,500 -551,0 z"
                   id="path107"
                   inkscape:connector-curvature="0"
                   style="fill:#00ccff;stroke:none" /><path
                   d="m 2928,1976 -552,0 0,-500 1103,0 0,500 -551,0 z"
                   id="path109"
                   inkscape:connector-curvature="0"
                   style="fill:none;stroke:#3465af;stroke-width:76;stroke-linejoin:round" /></g></g></g></g></g></g></g></svg>